<?xml version="1.0" encoding="UTF-8"?>
<svg width="250px" height="27px" viewBox="0 0 250 27" version="1.1" xmlns="http://www.w3.org/2000/svg" xmlns:xlink="http://www.w3.org/1999/xlink">
    <!-- Generator: Sketch 49.3 (51167) - http://www.bohemiancoding.com/sketch -->
    <title>democrateam copy</title>
    <desc>Created with Sketch.</desc>
    <defs></defs>
    <g id="Page-1" stroke="none" stroke-width="1" fill="none" fill-rule="evenodd">
        <path d="M7.668,25.92 C5.33998836,25.92 3.51000666,25.1880073 2.178,23.724 C0.84599334,22.2599927 0.13200048,20.1720136 0.036,17.46 L0,16.2 L0.036,14.904 C0.13200048,12.2879869 0.85199328,10.2300075 2.196,8.73 C3.54000672,7.2299925 5.36398848,6.48 7.668,6.48 C9.8280108,6.48 11.5679934,7.17599304 12.888,8.568 L12.888,0.9 C12.888,0.63599868 12.9779991,0.42000084 13.158,0.252 C13.3380009,0.08399916 13.5479988,0 13.788,0 L18.432,0 C18.6960013,0 18.9179991,0.08399916 19.098,0.252 C19.2780009,0.42000084 19.368,0.63599868 19.368,0.9 L19.368,24.66 C19.368,24.9240013 19.2780009,25.1399992 19.098,25.308 C18.9179991,25.4760008 18.6960013,25.56 18.432,25.56 L14.148,25.56 C13.9079988,25.56 13.6980009,25.4700009 13.518,25.29 C13.3379991,25.1099991 13.248,24.9000012 13.248,24.66 L13.248,23.544 C11.9519935,25.1280079 10.0920121,25.92 7.668,25.92 Z M9.756,20.916 C10.7880052,20.916 11.5559975,20.5860033 12.06,19.926 C12.5640025,19.2659967 12.8399998,18.432005 12.888,17.424 C12.9360002,16.7519966 12.96,16.2960012 12.96,16.056 C12.96,15.7919987 12.9360002,15.3480031 12.888,14.724 C12.8399998,13.7879953 12.5580026,13.0140031 12.042,12.402 C11.5259974,11.7899969 10.764005,11.484 9.756,11.484 C8.6759946,11.484 7.90200234,11.8019968 7.434,12.438 C6.96599766,13.0740032 6.69600036,13.9559944 6.624,15.084 L6.588,16.2 L6.624,17.316 C6.69600036,18.4440056 6.96599766,19.3259968 7.434,19.962 C7.90200234,20.5980032 8.6759946,20.916 9.756,20.916 Z M32.256,25.92 C29.3279854,25.92 27.0240084,25.1340079 25.344,23.562 C23.6639916,21.9899921 22.8000002,19.704015 22.752,16.704 L22.752,15.588 C22.8480005,12.7319857 23.7359916,10.500008 25.416,8.892 C27.0960084,7.28399196 29.3639857,6.48 32.22,6.48 C34.2840103,6.48 36.0299929,6.89399586 37.458,7.722 C38.8860071,8.55000414 39.9539965,9.68999274 40.662,11.142 C41.3700035,12.5940073 41.724,14.2439908 41.724,16.092 L41.724,16.992 C41.724,17.2560013 41.6340009,17.4779991 41.454,17.658 C41.2739991,17.8380009 41.0520013,17.928 40.788,17.928 L29.376,17.928 L29.376,18.144 C29.4000001,19.2240054 29.6519976,20.0939967 30.132,20.754 C30.6120024,21.4140033 31.2959956,21.744 32.184,21.744 C32.7600029,21.744 33.2219983,21.6300011 33.57,21.402 C33.9180017,21.1739989 34.2479984,20.8800018 34.56,20.52 C34.7760011,20.2799988 34.9499993,20.1300003 35.082,20.07 C35.2140007,20.0099997 35.4239986,19.98 35.712,19.98 L40.428,19.98 C40.6440011,19.98 40.8299992,20.0459993 40.986,20.178 C41.1420008,20.3100007 41.22,20.471999 41.22,20.664 C41.22,21.2880031 40.8660035,22.0199958 40.158,22.86 C39.4499965,23.7000042 38.4180068,24.419997 37.062,25.02 C35.7059932,25.620003 34.1040092,25.92 32.256,25.92 Z M35.1,14.256 L35.1,14.184 C35.1,13.0319942 34.8480025,12.1380032 34.344,11.502 C33.8399975,10.8659968 33.1320046,10.548 32.22,10.548 C31.3079954,10.548 30.6060025,10.8659968 30.114,11.502 C29.6219975,12.1380032 29.376,13.0319942 29.376,14.184 L29.376,14.256 L35.1,14.256 Z M45.864,25.56 C45.6239988,25.56 45.4140009,25.4700009 45.234,25.29 C45.0539991,25.1099991 44.964,24.9000012 44.964,24.66 L44.964,7.74 C44.964,7.47599868 45.0539991,7.26000084 45.234,7.092 C45.4140009,6.92399916 45.6239988,6.84 45.864,6.84 L50.04,6.84 C50.3040013,6.84 50.5199992,6.92399916 50.688,7.092 C50.8560008,7.26000084 50.94,7.47599868 50.94,7.74 L50.94,8.964 C51.5160029,8.26799652 52.2599954,7.6800024 53.172,7.2 C54.0840046,6.7199976 55.1159942,6.48 56.268,6.48 C58.9080132,6.48 60.7199951,7.51198968 61.704,9.576 C62.2800029,8.66399544 63.0839948,7.92000288 64.116,7.344 C65.1480052,6.76799712 66.2519941,6.48 67.428,6.48 C69.3960098,6.48 70.9979938,7.14599334 72.234,8.478 C73.4700062,9.81000666 74.088,11.7959868 74.088,14.436 L74.088,24.66 C74.088,24.9000012 74.0040008,25.1099991 73.836,25.29 C73.6679992,25.4700009 73.4520013,25.56 73.188,25.56 L68.76,25.56 C68.4959987,25.56 68.2740009,25.4760008 68.094,25.308 C67.9139991,25.1399992 67.824,24.9240013 67.824,24.66 L67.824,14.688 C67.824,13.5839945 67.5900023,12.7740026 67.122,12.258 C66.6539977,11.7419974 66.024004,11.484 65.232,11.484 C64.4879963,11.484 63.8820023,11.7419974 63.414,12.258 C62.9459977,12.7740026 62.712,13.5839945 62.712,14.688 L62.712,24.66 C62.712,24.9000012 62.6280008,25.1099991 62.46,25.29 C62.2919992,25.4700009 62.0760013,25.56 61.812,25.56 L57.384,25.56 C57.1199987,25.56 56.8980009,25.4760008 56.718,25.308 C56.5379991,25.1399992 56.448,24.9240013 56.448,24.66 L56.448,14.688 C56.448,13.5839945 56.2080024,12.7740026 55.728,12.258 C55.2479976,11.7419974 54.6240038,11.484 53.856,11.484 C53.1119963,11.484 52.5000024,11.7419974 52.02,12.258 C51.5399976,12.7740026 51.3,13.5719946 51.3,14.652 L51.3,24.66 C51.3,24.9000012 51.2160008,25.1099991 51.048,25.29 C50.8799992,25.4700009 50.6640013,25.56 50.4,25.56 L45.864,25.56 Z M87.012,25.92 C83.9879849,25.92 81.6660081,25.218007 80.046,23.814 C78.4259919,22.409993 77.5440007,20.412013 77.4,17.82 C77.3759999,17.5079984 77.364,16.9680038 77.364,16.2 C77.364,15.4319962 77.3759999,14.8920016 77.4,14.58 C77.5440007,12.0359873 78.4499917,10.0500071 80.118,8.622 C81.7860083,7.19399286 84.0839854,6.48 87.012,6.48 C89.9400146,6.48 92.2379917,7.19399286 93.906,8.622 C95.5740083,10.0500071 96.4799993,12.0359873 96.624,14.58 C96.6720002,15.2040031 96.696,15.7439977 96.696,16.2 C96.696,16.6560023 96.6720002,17.1959969 96.624,17.82 C96.4799993,20.412013 95.5980081,22.409993 93.978,23.814 C92.3579919,25.218007 90.0360151,25.92 87.012,25.92 Z M87.012,21.384 C87.9960049,21.384 88.7279976,21.0780031 89.208,20.466 C89.6880024,19.8539969 89.9639996,18.9120064 90.036,17.64 C90.0600001,17.3999988 90.072,16.9200036 90.072,16.2 C90.072,15.4799964 90.0600001,15.0000012 90.036,14.76 C89.9639996,13.5119938 89.6880024,12.5760031 89.208,11.952 C88.7279976,11.3279969 87.9960049,11.016 87.012,11.016 C86.0279951,11.016 85.2960024,11.3279969 84.816,11.952 C84.3359976,12.5760031 84.0600004,13.5119938 83.988,14.76 L83.952,16.2 L83.988,17.64 C84.0600004,18.9120064 84.3359976,19.8539969 84.816,20.466 C85.2960024,21.0780031 86.0279951,21.384 87.012,21.384 Z M108.828,25.92 C106.091986,25.92 103.878008,25.1940073 102.186,23.742 C100.493992,22.2899927 99.5880006,20.268013 99.468,17.676 L99.432,16.236 L99.468,14.76 C99.5640005,12.167987 100.463991,10.1400073 102.168,8.676 C103.872009,7.21199268 106.091986,6.48 108.828,6.48 C110.91601,6.48 112.667993,6.85199628 114.084,7.596 C115.500007,8.34000372 116.555997,9.2219949 117.252,10.242 C117.948003,11.2620051 118.32,12.1919958 118.368,13.032 C118.392,13.2960013 118.308001,13.5179991 118.116,13.698 C117.923999,13.8780009 117.696001,13.968 117.432,13.968 L112.608,13.968 C112.343999,13.968 112.140001,13.9080006 111.996,13.788 C111.851999,13.6679994 111.720001,13.4760013 111.6,13.212 C111.335999,12.5399966 110.994002,12.0480016 110.574,11.736 C110.153998,11.4239984 109.620003,11.268 108.972,11.268 C107.123991,11.268 106.164,12.4919878 106.092,14.94 L106.056,16.308 L106.092,17.496 C106.116,18.7440062 106.367998,19.6619971 106.848,20.25 C107.328002,20.8380029 108.035995,21.132 108.972,21.132 C109.668003,21.132 110.213998,20.9820015 110.61,20.682 C111.006002,20.3819985 111.335999,19.8840035 111.6,19.188 C111.720001,18.9239987 111.851999,18.7320006 111.996,18.612 C112.140001,18.4919994 112.343999,18.432 112.608,18.432 L117.432,18.432 C117.672001,18.432 117.887999,18.5159992 118.08,18.684 C118.272001,18.8520008 118.368,19.0559988 118.368,19.296 C118.368,20.0400037 118.038003,20.9339948 117.378,21.978 C116.717997,23.0220052 115.668007,23.939996 114.228,24.732 C112.787993,25.524004 110.988011,25.92 108.828,25.92 Z M122.364,25.56 C122.123999,25.56 121.914001,25.4700009 121.734,25.29 C121.553999,25.1099991 121.464,24.9000012 121.464,24.66 L121.464,7.776 C121.464,7.51199868 121.547999,7.2900009 121.716,7.11 C121.884001,6.9299991 122.099999,6.84 122.364,6.84 L126.756,6.84 C127.020001,6.84 127.241999,6.9299991 127.422,7.11 C127.602001,7.2900009 127.692,7.51199868 127.692,7.776 L127.692,9.144 C128.364003,8.39999628 129.149996,7.83000198 130.05,7.434 C130.950005,7.03799802 131.951994,6.84 133.056,6.84 L134.676,6.84 C134.940001,6.84 135.155999,6.92399916 135.324,7.092 C135.492001,7.26000084 135.576,7.47599868 135.576,7.74 L135.576,11.664 C135.576,11.9040012 135.492001,12.1139991 135.324,12.294 C135.155999,12.4740009 134.940001,12.564 134.676,12.564 L131.04,12.564 C130.079995,12.564 129.342003,12.8279974 128.826,13.356 C128.309997,13.8840026 128.052,14.6279952 128.052,15.588 L128.052,24.66 C128.052,24.9240013 127.962001,25.1399992 127.782,25.308 C127.601999,25.4760008 127.380001,25.56 127.116,25.56 L122.364,25.56 Z M143.388,25.92 C142.115994,25.92 140.958005,25.6740025 139.914,25.182 C138.869995,24.6899975 138.054003,24.0120043 137.466,23.148 C136.877997,22.2839957 136.584,21.3360052 136.584,20.304 C136.584,18.6719918 137.261993,17.3460051 138.618,16.326 C139.974007,15.3059949 141.839988,14.6040019 144.216,14.22 L148.68,13.536 L148.68,13.104 C148.68,12.2159956 148.500002,11.568002 148.14,11.16 C147.779998,10.751998 147.168004,10.548 146.304,10.548 C145.823998,10.548 145.422002,10.6319992 145.098,10.8 C144.773998,10.9680008 144.408002,11.2199983 144,11.556 C143.687998,11.8200013 143.412001,12.0119994 143.172,12.132 C143.076,12.3000008 142.956001,12.384 142.812,12.384 L138.636,12.384 C138.395999,12.384 138.198001,12.3060008 138.042,12.15 C137.885999,11.9939992 137.82,11.8080011 137.844,11.592 C137.868,10.9439968 138.191997,10.218004 138.816,9.414 C139.440003,8.60999598 140.387994,7.92000288 141.66,7.344 C142.932006,6.76799712 144.503991,6.48 146.376,6.48 C149.352015,6.48 151.559993,7.13399346 153,8.442 C154.440007,9.75000654 155.16,11.5199888 155.16,13.752 L155.16,24.66 C155.16,24.9000012 155.076001,25.1099991 154.908,25.29 C154.739999,25.4700009 154.524001,25.56 154.26,25.56 L149.832,25.56 C149.591999,25.56 149.382001,25.4700009 149.202,25.29 C149.021999,25.1099991 148.932,24.9000012 148.932,24.66 L148.932,23.4 C148.403997,24.1440037 147.672005,24.7499977 146.736,25.218 C145.799995,25.6860023 144.684006,25.92 143.388,25.92 Z M145.188,21.672 C146.244005,21.672 147.101997,21.3240035 147.762,20.628 C148.422003,19.9319965 148.752,18.9240066 148.752,17.604 L148.752,17.172 L145.764,17.676 C143.74799,18.0600019 142.74,18.7799947 142.74,19.836 C142.74,20.3880028 142.973998,20.8319983 143.442,21.168 C143.910002,21.5040017 144.491997,21.672 145.188,21.672 Z" id="democrateam-copy" fill="#1D1D1D"></path>
        <path d="M169.376,25.56 C164.287975,25.56 161.744,23.1720239 161.744,18.396 L161.744,11.736 L158.9,11.736 C158.659999,11.736 158.450001,11.6460009 158.27,11.466 C158.089999,11.2859991 158,11.0760012 158,10.836 L158,7.74 C158,7.47599868 158.089999,7.26000084 158.27,7.092 C158.450001,6.92399916 158.659999,6.84 158.9,6.84 L161.744,6.84 L161.744,0.9 C161.744,0.63599868 161.833999,0.42000084 162.014,0.252 C162.194001,0.08399916 162.403999,0 162.644,0 L167.072,0 C167.336001,0 167.551999,0.08399916 167.72,0.252 C167.888001,0.42000084 167.972,0.63599868 167.972,0.9 L167.972,6.84 L172.472,6.84 C172.736001,6.84 172.957999,6.92399916 173.138,7.092 C173.318001,7.26000084 173.408,7.47599868 173.408,7.74 L173.408,10.836 C173.408,11.1000013 173.318001,11.3159992 173.138,11.484 C172.957999,11.6520008 172.736001,11.736 172.472,11.736 L167.972,11.736 L167.972,17.856 C167.972,18.6960042 168.127998,19.3319978 168.44,19.764 C168.752002,20.1960022 169.255997,20.412 169.952,20.412 L172.796,20.412 C173.060001,20.412 173.275999,20.5019991 173.444,20.682 C173.612001,20.8620009 173.696,21.0839987 173.696,21.348 L173.696,24.66 C173.696,24.9000012 173.612001,25.1099991 173.444,25.29 C173.275999,25.4700009 173.060001,25.56 172.796,25.56 L169.376,25.56 Z M185.396,25.92 C182.467985,25.92 180.164008,25.1340079 178.484,23.562 C176.803992,21.9899921 175.94,19.704015 175.892,16.704 L175.892,15.588 C175.988,12.7319857 176.875992,10.500008 178.556,8.892 C180.236008,7.28399196 182.503986,6.48 185.36,6.48 C187.42401,6.48 189.169993,6.89399586 190.598,7.722 C192.026007,8.55000414 193.093996,9.68999274 193.802,11.142 C194.510004,12.5940073 194.864,14.2439908 194.864,16.092 L194.864,16.992 C194.864,17.2560013 194.774001,17.4779991 194.594,17.658 C194.413999,17.8380009 194.192001,17.928 193.928,17.928 L182.516,17.928 L182.516,18.144 C182.54,19.2240054 182.791998,20.0939967 183.272,20.754 C183.752002,21.4140033 184.435996,21.744 185.324,21.744 C185.900003,21.744 186.361998,21.6300011 186.71,21.402 C187.058002,21.1739989 187.387998,20.8800018 187.7,20.52 C187.916001,20.2799988 188.089999,20.1300003 188.222,20.07 C188.354001,20.0099997 188.563999,19.98 188.852,19.98 L193.568,19.98 C193.784001,19.98 193.969999,20.0459993 194.126,20.178 C194.282001,20.3100007 194.36,20.471999 194.36,20.664 C194.36,21.2880031 194.006004,22.0199958 193.298,22.86 C192.589996,23.7000042 191.558007,24.419997 190.202,25.02 C188.845993,25.620003 187.244009,25.92 185.396,25.92 Z M188.24,14.256 L188.24,14.184 C188.24,13.0319942 187.988003,12.1380032 187.484,11.502 C186.979997,10.8659968 186.272005,10.548 185.36,10.548 C184.447995,10.548 183.746002,10.8659968 183.254,11.502 C182.761998,12.1380032 182.516,13.0319942 182.516,14.184 L182.516,14.256 L188.24,14.256 Z M203.756,25.92 C202.483994,25.92 201.326005,25.6740025 200.282,25.182 C199.237995,24.6899975 198.422003,24.0120043 197.834,23.148 C197.245997,22.2839957 196.952,21.3360052 196.952,20.304 C196.952,18.6719918 197.629993,17.3460051 198.986,16.326 C200.342007,15.3059949 202.207988,14.6040019 204.584,14.22 L209.048,13.536 L209.048,13.104 C209.048,12.2159956 208.868002,11.568002 208.508,11.16 C208.147998,10.751998 207.536004,10.548 206.672,10.548 C206.191998,10.548 205.790002,10.6319992 205.466,10.8 C205.141998,10.9680008 204.776002,11.2199983 204.368,11.556 C204.055998,11.8200013 203.780001,12.0119994 203.54,12.132 C203.444,12.3000008 203.324001,12.384 203.18,12.384 L199.004,12.384 C198.763999,12.384 198.566001,12.3060008 198.41,12.15 C198.253999,11.9939992 198.188,11.8080011 198.212,11.592 C198.236,10.9439968 198.559997,10.218004 199.184,9.414 C199.808003,8.60999598 200.755994,7.92000288 202.028,7.344 C203.300006,6.76799712 204.871991,6.48 206.744,6.48 C209.720015,6.48 211.927993,7.13399346 213.368,8.442 C214.808007,9.75000654 215.528,11.5199888 215.528,13.752 L215.528,24.66 C215.528,24.9000012 215.444001,25.1099991 215.276,25.29 C215.107999,25.4700009 214.892001,25.56 214.628,25.56 L210.2,25.56 C209.959999,25.56 209.750001,25.4700009 209.57,25.29 C209.389999,25.1099991 209.3,24.9000012 209.3,24.66 L209.3,23.4 C208.771997,24.1440037 208.040005,24.7499977 207.104,25.218 C206.167995,25.6860023 205.052006,25.92 203.756,25.92 Z M205.556,21.672 C206.612005,21.672 207.469997,21.3240035 208.13,20.628 C208.790003,19.9319965 209.12,18.9240066 209.12,17.604 L209.12,17.172 L206.132,17.676 C204.11599,18.0600019 203.108,18.7799947 203.108,19.836 C203.108,20.3880028 203.341998,20.8319983 203.81,21.168 C204.278002,21.5040017 204.859997,21.672 205.556,21.672 Z M220.352,25.56 C220.111999,25.56 219.902001,25.4700009 219.722,25.29 C219.541999,25.1099991 219.452,24.9000012 219.452,24.66 L219.452,7.74 C219.452,7.47599868 219.541999,7.26000084 219.722,7.092 C219.902001,6.92399916 220.111999,6.84 220.352,6.84 L224.528,6.84 C224.792001,6.84 225.007999,6.92399916 225.176,7.092 C225.344001,7.26000084 225.428,7.47599868 225.428,7.74 L225.428,8.964 C226.004003,8.26799652 226.747995,7.6800024 227.66,7.2 C228.572005,6.7199976 229.603994,6.48 230.756,6.48 C233.396013,6.48 235.207995,7.51198968 236.192,9.576 C236.768003,8.66399544 237.571995,7.92000288 238.604,7.344 C239.636005,6.76799712 240.739994,6.48 241.916,6.48 C243.88401,6.48 245.485994,7.14599334 246.722,8.478 C247.958006,9.81000666 248.576,11.7959868 248.576,14.436 L248.576,24.66 C248.576,24.9000012 248.492001,25.1099991 248.324,25.29 C248.155999,25.4700009 247.940001,25.56 247.676,25.56 L243.248,25.56 C242.983999,25.56 242.762001,25.4760008 242.582,25.308 C242.401999,25.1399992 242.312,24.9240013 242.312,24.66 L242.312,14.688 C242.312,13.5839945 242.078002,12.7740026 241.61,12.258 C241.141998,11.7419974 240.512004,11.484 239.72,11.484 C238.975996,11.484 238.370002,11.7419974 237.902,12.258 C237.433998,12.7740026 237.2,13.5839945 237.2,14.688 L237.2,24.66 C237.2,24.9000012 237.116001,25.1099991 236.948,25.29 C236.779999,25.4700009 236.564001,25.56 236.3,25.56 L231.872,25.56 C231.607999,25.56 231.386001,25.4760008 231.206,25.308 C231.025999,25.1399992 230.936,24.9240013 230.936,24.66 L230.936,14.688 C230.936,13.5839945 230.696002,12.7740026 230.216,12.258 C229.735998,11.7419974 229.112004,11.484 228.344,11.484 C227.599996,11.484 226.988002,11.7419974 226.508,12.258 C226.027998,12.7740026 225.788,13.5719946 225.788,14.652 L225.788,24.66 C225.788,24.9000012 225.704001,25.1099991 225.536,25.29 C225.367999,25.4700009 225.152001,25.56 224.888,25.56 L220.352,25.56 Z" id="Combined-Shape-Copy" fill="#7112E1"></path>
    </g>
</svg>